# xmcd
#
# Track frame offsets: 
#        150
#        14868
#        30900
#        48535
#        55976
#        68573
#        80719
#        89925
#        102891
#        120504
#
# Disc length: 1989 seconds
#
# Revision: 0
# Processed by: cddbd v1.5.2PL0 Copyright (c) Steve Scherf et al.
# Submitted via: ExactAudioCopy v1.0b1
#
DISCID=8607c30a
DTITLE=Juju - Mustavalkosta
DYEAR=2011
DGENRE=Hip-Hop
TTITLE0=Kupla
TTITLE1=Tonni
TTITLE2=Huuda
TTITLE3=Onni
TTITLE4=Loppu (feat. Tesoman Apteekkari)
TTITLE5=Vapaana (feat. Julma-Henri)
TTITLE6=Hurrikaani
TTITLE7=Kuuluu
TTITLE8=Yhdistyk‰‰ (feat. Dima and Edorf)
TTITLE9=Ajattelutapa
EXTD=
EXTT0=
EXTT1=
EXTT2=
EXTT3=
EXTT4=
EXTT5=
EXTT6=
EXTT7=
EXTT8=
EXTT9=
PLAYORDER=
